<svg width="18" height="18" viewBox="0 0 18 18" fill="none" xmlns="http://www.w3.org/2000/svg">
<path d="M14.0262 12.8472L17.5951 16.4161L16.4166 17.5946L12.8477 14.0257C11.5644 15.0523 9.93699 15.6665 8.16699 15.6665C4.02699 15.6665 0.666992 12.3065 0.666992 8.1665C0.666992 4.0265 4.02699 0.666504 8.16699 0.666504C12.307 0.666504 15.667 4.0265 15.667 8.1665C15.667 9.9365 15.0528 11.5639 14.0262 12.8472ZM12.3542 12.2288C13.3732 11.1787 14.0003 9.74617 14.0003 8.1665C14.0003 4.94359 11.3899 2.33317 8.16699 2.33317C4.94408 2.33317 2.33366 4.94359 2.33366 8.1665C2.33366 11.3894 4.94408 13.9998 8.16699 13.9998C9.74666 13.9998 11.1792 13.3728 12.2293 12.3538L12.3542 12.2288Z" fill="white"/>
</svg>
