<svg width="20" height="20" viewBox="0 0 20 20" fill="none" xmlns="http://www.w3.org/2000/svg">
<path d="M12.3573 6.46442L7.64325 11.1784C7.3178 11.5039 7.3178 12.0315 7.64325 12.3569C7.96868 12.6824 8.49633 12.6824 8.82175 12.3569L13.5358 7.64293C14.5121 6.66662 14.5121 5.08371 13.5358 4.10739C12.5595 3.13108 10.9766 3.13108 10.0002 4.10739L5.28622 8.82144C3.65904 10.4486 3.65904 13.0868 5.28622 14.714C6.9134 16.3412 9.55158 16.3412 11.1787 14.714L15.8928 9.99994L17.0713 11.1784L12.3573 15.8925C10.0792 18.1705 6.38577 18.1705 4.10771 15.8925C1.82966 13.6144 1.82966 9.92103 4.10771 7.64293L8.82175 2.92888C10.4489 1.3017 13.0872 1.3017 14.7143 2.92888C16.3415 4.55607 16.3415 7.19425 14.7143 8.82144L10.0002 13.5355C9.024 14.5118 7.44105 14.5118 6.46474 13.5355C5.48842 12.5592 5.48842 10.9763 6.46474 9.99994L11.1787 5.28591L12.3573 6.46442Z" fill="#666666"/>
</svg>
